#!OML:ASF E:\acrobat2\Project_11_07_03\Capture day 1\Session 1\Acrobat.ASF
:FULLY-SPECIFIED
:DEGREES
1002
root 12.5067 18.1357 38.3446 4.39749 -0.93481 0.473081
lowerback -6.45592 0.33174 -0.885521
upperback -1.91646 0.526511 -1.41163
thorax 1.64998 0.260518 -0.913448
lowerneck -0.210441 -7.22404 -5.68104
upperneck 3.34844 -10.0897 12.4038
head 1.95191 -4.9365 4.39243
rclavicle 4.27387e-015 -4.37326e-015
rhumerus -40.3547 -2.68867 -83.1475
rradius 25.7593
rwrist 6.6049
rhand 2.19228 -45.7096
rfingers 7.12502
rthumb 27.6885 -73.6914
lclavicle 4.27387e-015 -4.37326e-015
lhumerus -33.5324 -14.9845 90.8668
lradius 25.4127
lwrist 12.8363
lhand -9.98968 -9.9384
lfingers 7.12502
lthumb 15.9936 19.4214
rfemur 4.88742 10.663 16.3303
rtibia -0.283969
rfoot -18.4949 -25.1599
rtoes -9.84275
lfemur 2.91331 -2.44105 -13.5192
ltibia 1.77777
lfoot -12.6312 1.32741
ltoes 23.9517
1003
root 12.507 18.1356 38.3442 4.40289 -0.951818 0.390039
lowerback -6.45734 0.329971 -0.801117
upperback -1.93426 0.517823 -1.37989
thorax 1.63284 0.256301 -0.928894
lowerneck -0.208841 -7.19864 -5.67577
upperneck 3.34417 -10.0542 12.3899
head 1.9461 -4.9192 4.38913
rclavicle 3.39176e-015 -7.95139e-016
rhumerus -40.364 -2.50971 -83.2381
rradius 26.0425
rwrist 6.35109
rhand 2.12407 -45.5868
rfingers 7.12502
rthumb 27.6232 -73.579
lclavicle 3.39176e-015 -7.95139e-016
lhumerus -33.5081 -14.9649 90.884
lradius 25.3893
lwrist 12.8383
lhand -10.023 -10.041
lfingers 7.12502
lthumb 15.9615 19.3213
rfemur 4.86832 10.7238 16.4399
rtibia -0.264295
rfoot -18.5075 -25.206
rtoes -9.94004
lfemur 2.89103 -2.4214 -13.4047
ltibia 1.81744
lfoot -12.6287 1.3096
ltoes 24.0581
1004
root 12.5076 18.1355 38.3434 4.40999 -0.969201 0.286948
lowerback -6.45597 0.325444 -0.695401
upperback -1.94915 0.503959 -1.33952
thorax 1.61718 0.249505 -0.947838
lowerneck -0.208882 -7.17004 -5.66046
upperneck 3.32671 -10.0126 12.364
head 1.93501 -4.89917 4.38107
rclavicle 1.78906e-015 1.27222e-014
rhumerus -40.394 -2.33156 -83.319
rradius 26.3769
rwrist 6.11656
rhand 2.09939 -45.4749
rfingers 7.12502
rthumb 27.5996 -73.4709
lclavicle 1.78906e-015 1.27222e-014
lhumerus -33.4726 -14.902 90.8823
lradius 25.351
lwrist 12.819
lhand -10.0626 -10.1142
lfingers 7.12502
lthumb 15.9233 19.2512
rfemur 4.84276 10.7882 16.5746
rtibia -0.239318
rfoot -18.513 -25.2582
rtoes -10.0416
lfemur 2.86606 -2.39678 -13.2655
ltibia 1.85787
lfoot -12.6366 1.28928
ltoes 24.1398
1005
root 12.5084 18.1354 38.3423 4.42453 -0.986111 0.201594
lowerback -6.46138 0.316682 -0.60715
upperback -1.9616 0.48579 -1.30181
thorax 1.60758 0.240524 -0.960002
lowerneck -0.207885 -7.14013 -5.63684
upperneck 3.29049 -9.96716 12.3324
head 1.91722 -4.87777 4.37051
rclavicle 7.19352e-015 -5.56597e-015
rhumerus -40.4305 -2.18094 -83.3789
rradius 26.7401
rwrist 5.91193
rhand 2.1087 -45.4338
rfingers 7.12502
rthumb 27.6085 -73.4284
lclavicle 7.19352e-015 -5.56597e-015
lhumerus -33.426 -14.8123 90.8637
lradius 25.2976
lwrist 12.77
lhand -10.1095 -10.1729
lfingers 7.12502
lthumb 15.8782 19.1962
rfemur 4.80482 10.8485 16.6851
rtibia -0.209869
rfoot -18.5072 -25.3102
rtoes -10.1249
lfemur 2.8332 -2.36644 -13.1494
ltibia 1.8959
lfoot -12.6551 1.26322
ltoes 24.2238
1006
root 12.5094 18.1354 38.3412 4.44709 -1.00567 0.154656
lowerback -6.47829 0.305067 -0.560744
upperback -1.97141 0.466875 -1.27322
thorax 1.60679 0.231125 -0.958057
lowerneck -0.220885 -7.11328 -5.59645
upperneck 3.2516 -9.92473 12.2867
head 1.89972 -4.85744 4.35241
rclavicle -6.5102e-015 9.54166e-015
rhumerus -40.4602 -2.05487 -83.4258
rradius 27.1045
rwrist 5.73424
rhand 2.11728 -45.4913
rfingers 7.12502
rthumb 27.6167 -73.4846
lclavicle -6.5102e-015 9.54166e-015
lhumerus -33.3707 -14.7106 90.8296
lradius 25.2292
lwrist 12.6766
lhand -10.1557 -10.2313
lfingers 7.12502
lthumb 15.8337 19.1413
rfemur 4.75534 10.9038 16.7454
rtibia -0.179185
rfoot -18.4951 -25.3558
rtoes -10.1922
lfemur 2.79371 -2.32922 -13.0808
ltibia 1.92877
lfoot -12.673 1.22872
ltoes 24.4102
1007
root 12.5102 18.1355 38.3405 4.47414 -1.02885 0.151145
lowerback -6.50628 0.291174 -0.564275
upperback -1.97847 0.448503 -1.25471
thorax 1.61469 0.221956 -0.93835
lowerneck -0.253557 -7.09076 -5.54808
upperneck 3.22145 -9.8883 12.2348
head 1.88793 -4.83919 4.33
rclavicle 1.95057e-015 -4.77083e-015
rhumerus -40.4579 -1.94345 -83.4665
rradius 27.4171
rwrist 5.57828
rhand 2.1196 -45.63
rfingers 7.12502
rthumb 27.619 -73.6229
lclavicle 1.95057e-015 -4.77083e-015
lhumerus -33.3104 -14.6106 90.7864
lradius 25.1464
lwrist 12.5515
lhand -10.1816 -10.2916
lfingers 7.12502
lthumb 15.8087 19.0829
rfemur 4.70213 10.9557 16.7497
rtibia -0.151819
rfoot -18.4921 -25.3897
rtoes -10.2165
lfemur 2.75233 -2.28992 -13.0665
ltibia 1.95497
lfoot -12.6794 1.19769
ltoes 24.6099
1008
root 12.5108 18.1355 38.3404 4.50248 -1.05557 0.18029
lowerback -6.54183 0.278505 -0.60502
upperback -1.98421 0.434456 -1.24486
thorax 1.62799 0.214911 -0.906296
lowerneck -0.299656 -7.07499 -5.50638
upperneck 3.20346 -9.86214 12.1888
head 1.88352 -4.82526 4.30919
rclavicle 4.29872e-015 -1.51076e-014
rhumerus -40.4127 -1.84006 -83.5055
rradius 27.647
rwrist 5.42919
rhand 2.12304 -45.8099
rfingers 7.12502
rthumb 27.6223 -73.8023
lclavicle 4.29872e-015 -1.51076e-014
lhumerus -33.2547 -14.5325 90.7445
lradius 25.0588
lwrist 12.4207
lhand -10.1717 -10.3316
lfingers 7.12502
lthumb 15.8183 19.0421
rfemur 4.65294 11.0143 16.7133
rtibia -0.131308
rfoot -18.512 -25.4149
rtoes -10.1474
lfemur 2.7141 -2.25757 -13.0949
ltibia 1.97293
lfoot -12.6815 1.18417
ltoes 24.6567
1009
root 12.5113 18.1354 38.3407 4.53019 -1.08573 0.220176
lowerback -6.58097 0.26888 -0.658583
upperback -1.98977 0.425444 -1.23837
thorax 1.6435 0.210362 -0.870096
lowerneck -0.349507 -7.06442 -5.47725
upperneck 3.19517 -9.84417 12.1511
head 1.88439 -4.81506 4.29223
rclavicle 1.6027e-015 1.31198e-014
rhumerus -40.3278 -1.78747 -83.5219
rradius 27.7929
rwrist 5.32819
rhand 2.11814 -45.9723
rfingers 7.12502
rthumb 27.6176 -73.9654
lclavicle 1.6027e-015 1.31198e-014
lhumerus -33.211 -14.4924 90.714
lradius 24.9757
lwrist 12.3222
lhand -10.136 -10.3271
lfingers 7.12502
lthumb 15.8527 19.0439
rfemur 4.61227 11.0842 16.6642
rtibia -0.121093
rfoot -18.5503 -25.438
rtoes -9.99694
lfemur 2.68271 -2.23884 -13.1394
ltibia 1.98071
lfoot -12.6895 1.19693
ltoes 24.5248
1010
root 12.5116 18.1353 38.3412 4.55687 -1.11666 0.24943
lowerback -6.6193 0.26078 -0.702289
upperback -1.99659 0.417749 -1.22802
thorax 1.65731 0.206477 -0.835385
lowerneck -0.388259 -7.05368 -5.47171
upperneck 3.1904 -9.82718 12.1304
head 1.88654 -4.80567 4.2844
rclavicle -9.31803e-016 -2.78299e-015
rhumerus -40.2222 -1.75093 -83.5301
rradius 27.8807
rwrist 5.24146
rhand 2.0895 -46.0713
rfingers 7.12502
rthumb 27.5902 -74.0688
lclavicle -9.31803e-016 -2.78299e-015
lhumerus -33.1822 -14.4802 90.6967
lradius 24.8945
lwrist 12.2738
lhand -10.097 -10.2782
lfingers 7.12502
lthumb 15.8903 19.0899
rfemur 4.57916 11.1565 16.6277
rtibia -0.120451
rfoot -18.5889 -25.4659
rtoes -9.84589
lfemur 2.65727 -2.23565 -13.1736
ltibia 1.97912
lfoot -12.6997 1.24121
ltoes 24.2634
1011
root 12.5119 18.135 38.3416 4.5811 -1.15014 0.250443
lowerback -6.65169 0.256019 -0.715907
upperback -2.00476 0.412247 -1.20845
thorax 1.66662 0.203719 -0.807925
lowerneck -0.41498 -7.04212 -5.48633
upperneck 3.18848 -9.80975 12.1169
head 1.88885 -4.79652 4.28238
rclavicle -1.10822e-014 6.75868e-015
rhumerus -40.1263 -1.70404 -83.5431
rradius 27.9642
rwrist 5.1637
rhand 2.02875 -46.0982
rfingers 7.12502
rthumb 27.5321 -74.105
lclavicle -1.10822e-014 6.75868e-015
lhumerus -33.1652 -14.4792 90.6886
lradius 24.807
lwrist 12.2644
lhand -10.0769 -10.2019
lfingers 7.12502
lthumb 15.9096 19.1646
rfemur 4.55059 11.2331 16.6264
rtibia -0.123406
rfoot -18.6194 -25.5025
rtoes -9.75151
lfemur 2.63868 -2.24782 -13.1749
ltibia 1.96985
lfoot -12.7193 1.31245
ltoes 23.9445
1012
root 12.5121 18.1347 38.3419 4.60363 -1.18736 0.224519
lowerback -6.67672 0.254261 -0.698548
upperback -2.01428 0.408402 -1.18076
thorax 1.67063 0.201825 -0.789409
lowerneck -0.432498 -7.02847 -5.50259
upperneck 3.1812 -9.78869 12.0936
head 1.88732 -4.78618 4.2783
rclavicle -1.635e-014 2.10712e-014
rhumerus -40.0499 -1.61401 -83.5777
rradius 28.0677
rwrist 5.0613
rhand 1.92923 -46.0728
rfingers 7.12502
rthumb 27.4369 -74.0948
lclavicle -1.635e-014 2.10712e-014
lhumerus -33.151 -14.4732 90.6805
lradius 24.7002
lwrist 12.2755
lhand -10.093 -10.1366
lfingers 7.12502
lthumb 15.8941 19.2311
rfemur 4.52158 11.3112 16.6578
rtibia -0.12463
rfoot -18.6385 -25.54
rtoes -9.71326
lfemur 2.62477 -2.26898 -13.1432
ltibia 1.9553
lfoot -12.7592 1.40039
ltoes 23.5899
1013
root 12.5122 18.1343 38.3419 4.6291 -1.22445 0.193209
lowerback -6.69816 0.254357 -0.670676
upperback -2.02748 0.406225 -1.15364
thorax 1.66894 0.200774 -0.777274
lowerneck -0.432331 -7.01599 -5.5146
upperneck 3.15717 -9.76783 12.0644
head 1.87745 -4.77702 4.27275
rclavicle 9.25591e-015 -8.74653e-015
rhumerus -39.9933 -1.4933 -83.626
rradius 28.1899
rwrist 4.91163
rhand 1.81019 -46.012
rfingers 7.12502
rthumb 27.323 -74.0519
lclavicle 9.25591e-015 -8.74653e-015
lhumerus -33.1358 -14.4521 90.6618
lradius 24.5668
lwrist 12.2762
lhand -10.1368 -10.1102
lfingers 7.12502
lthumb 15.8519 19.2609
rfemur 4.48529 11.3853 16.6941
rtibia -0.120385
rfoot -18.653 -25.5741
rtoes -9.69635
lfemur 2.60528 -2.2847 -13.1026
ltibia 1.94281
lfoot -12.8043 1.48992
ltoes 23.1942
1014
root 12.5124 18.1338 38.3419 4.65601 -1.26102 0.184565
lowerback -6.71517 0.254788 -0.663603
upperback -2.04487 0.40593 -1.13559
thorax 1.66042 0.200644 -0.762668
lowerneck -0.419628 -7.00965 -5.51719
upperneck 3.1219 -9.75417 12.0246
head 1.86188 -4.77218 4.26295
rclavicle 2.8948e-015 7.55382e-015
rhumerus -39.9637 -1.34919 -83.6897
rradius 28.3393
rwrist 4.7397
rhand 1.66578 -45.955
rfingers 7.12502
rthumb 27.1849 -74.0166
lclavicle 2.8948e-015 7.55382e-015
lhumerus -33.1241 -14.4094 90.6268
lradius 24.4142
lwrist 12.2361
lhand -10.1819 -10.1249
lfingers 7.12502
lthumb 15.8085 19.2497
rfemur 4.44338 11.454 16.7016
rtibia -0.109097
rfoot -18.6721 -25.603
rtoes -9.68042
lfemur 2.58048 -2.28589 -13.0879
ltibia 1.93669
lfoot -12.838 1.55871
ltoes 22.8548
1015
root 12.5125 18.1334 38.3421 4.67787 -1.298 0.211316
lowerback -6.72327 0.253166 -0.692876
upperback -2.06382 0.405411 -1.1295
thorax 1.64517 0.200379 -0.740026
lowerneck -0.415302 -7.01216 -5.51128
upperneck 3.09338 -9.75273 11.9775
head 1.85 -4.77296 4.24861
rclavicle -3.98812e-015 -7.95139e-016
rhumerus -39.9498 -1.19131 -83.7726
rradius 28.5053
rwrist 4.5898
rhand 1.49172 -45.9521
rfingers 7.12502
rthumb 27.0184 -74.0396
lclavicle -3.98812e-015 -7.95139e-016
lhumerus -33.1182 -14.3471 90.575
lradius 24.2561
lwrist 12.1511
lhand -10.2134 -10.1624
lfingers 7.12502
lthumb 15.7781 19.2146
rfemur 4.40682 11.5123 16.6653
rtibia -0.0971096
rfoot -18.6922 -25.6224
rtoes -9.6721
lfemur 2.56155 -2.27179 -13.1163
ltibia 1.93195
lfoot -12.8526 1.596
ltoes 22.6615
